<?xml version="1.0" encoding="UTF-8"?>
<svg viewBox="0 0 1024 768" xmlns="http://www.w3.org/2000/svg" xmlns:xlink="http://www.w3.org/1999/xlink">
 <defs>
  <clipPath id="n">
   <path d="m-152.74 126.57h1024v426.74h-1024z"/>
  </clipPath>
  <filter id="m" x="-.22642" y="-.22642" width="1.4528" height="1.4528">
   <feGaussianBlur stdDeviation="2.69542"/>
  </filter>
  <filter id="l" x="-.18044" y="-.43295" width="1.3609" height="1.8659">
   <feGaussianBlur stdDeviation="76.98284"/>
  </filter>
  <linearGradient id="a">
   <stop offset="0"/>
   <stop stop-opacity="0" offset="1"/>
  </linearGradient>
  <linearGradient id="b">
   <stop stop-color="#ff0" offset="0"/>
   <stop stop-color="#ff0" stop-opacity="0" offset="1"/>
  </linearGradient>
  <linearGradient id="c" x1="405.53" x2="403.3" y1="589.03" y2="628.86" gradientUnits="userSpaceOnUse">
   <stop stop-color="#fc0" offset="0"/>
   <stop stop-color="#fc0" stop-opacity="0" offset="1"/>
  </linearGradient>
  <linearGradient id="h" x1="144.83" x2="246.49" y1="-409.91" y2="868.82" gradientTransform="matrix(.99996 0 0 .55565 15.825 51.907)" gradientUnits="userSpaceOnUse">
   <stop offset="0"/>
   <stop stop-color="#f95" offset="1"/>
  </linearGradient>
  <linearGradient id="k" x1="-89.059" x2="-88.166" y1="553.54" y2="588" gradientUnits="userSpaceOnUse" xlink:href="#a"/>
  <linearGradient id="j" x1="578.25" x2="555.4" y1="601.03" y2="613.17" gradientUnits="userSpaceOnUse" xlink:href="#a"/>
  <linearGradient id="i" x1="468.64" x2="470.06" y1="586.03" y2="637.24" gradientUnits="userSpaceOnUse" xlink:href="#a"/>
  <radialGradient id="f" cx="50" cy="492.36" r="14.286" gradientUnits="userSpaceOnUse">
   <stop stop-color="#fff" offset="0"/>
   <stop stop-color="#fff" stop-opacity="0" offset="1"/>
  </radialGradient>
  <radialGradient id="d" cx="50" cy="493.59" r="14.286" gradientTransform="matrix(.87603 -3.831e-7 3.7949e-7 .86777 6.1982 65.106)" gradientUnits="userSpaceOnUse" xlink:href="#b"/>
  <radialGradient id="e" cx="49.143" cy="645.59" r="512.5" gradientTransform="matrix(1.0722 0 0 .55641 12.349 104.99)" gradientUnits="userSpaceOnUse" xlink:href="#b"/>
  <radialGradient id="g" cx="49.143" cy="645.59" r="512.5" gradientTransform="matrix(1.0723 0 0 -.43733 12.321 910.25)" gradientUnits="userSpaceOnUse" xlink:href="#b"/>
 </defs>
 <g transform="translate(152.78 -126.57)">
  <path d="m-152.68 129.12h1022.8v764.83h-1022.8z" fill="#f95"/>
  <path d="m-152.78 893.28h1021.8v-343.39l-1021.8 10.1v333.29z" fill="url(#g)"/>
  <path transform="matrix(12.096 0 0 12.098 -553.21 -5408.3)" d="m64.286 492.36a14.286 14.286 0 1 1 -28.571 0 14.286 14.286 0 1 1 28.571 0z" fill="url(#d)"/>
  <path d="m422.95 546.03-575.55 12.81v33.119l27.117 1.9371 169.95-6.4363-19.994-7.1549 22.868-3.5618-7.1542-7.8422 3.5615-4.999 39.301-7.1549 0.6873 11.435c0 2e-5 50.704 7.1236 45.706 7.1236s-47.111 8.5921-47.111 8.5921h135.68c1e-5 1e-5 -64.267-4.999-59.983-4.999s78.54-0.71862 78.54-0.71862l186.38-12.154v-19.996z" fill="#f95" fill-rule="evenodd"/>
  <path d="m-152.74 126.57h1024v426.74h-1024z" fill="url(#h)"/>
  <path d="m-152.74 126.57h1024v426.74h-1024z" clip-path="url(#n)" fill="url(#e)" filter="url(#l)"/>
  <path d="m864.7 398.65-7.0604 10.592 3.0304 9.5919-4.0613 5.5614-7.5603-9.5919-6.6856-8.7171 1.8744 7.8422-3.4053 0.87484-0.49986-4.6554-8.8412-6.4675s-0.24992 3.8054-0.24993 4.4367 3.8114 4.0305 3.8114 4.0305v3.1556l-7.0917-5.8114 3.2803 10.123-5.1548-4.6866 2.2494 11.873-3.6552 0.12498-5.8108-13.372 2.6555 10.092s-2.7728 0.62486-3.5302 0.62487-0.12496-3.6556-0.12497-3.6556l-3.1553 0.12498 1.6558-5.0615-7.0917-9.9668 0.37489 9.217-2.3743 1.531-4.1863 1.1248 3.0304-2.9057 0.12496-8.967-4.155 1.6559 0.37489 6.0613-2.5305-1.156-1.1247 6.1863-7.4666-4.6554 6.0607 10.092 0.12496 9.4669-4.5299-4.2804-4.5299-3.8118-0.15621 6.1863-6.5606-6.0614-1.1247 4.9366-3.5302-0.74986 1.7495-6.1863-1.8745-1.6559-5.5609-10.842-1.6245 6.1863 3.9051 3.4056-3.2803 1.2498-0.78102 4.3117s4.0588 2.1195 4.3112 2.6245-3e-5 4.3028 0 5.1865-4.8111-3.0307-4.8111-3.0307v5.5614s-5.1809-4.0267-5.6858-4.4054 6.7168 8.5609 6.7168 8.5609-5.9307 2.2808-6.4356 2.2808-6.0607-9.8419-6.0608-9.8419l-0.90598 11.998 3.9364 8.5609h-7.1542l1.812 8.2172-7.4978-3.2181v4.999l-4.9986-1.406 1.0622 6.0613 0.34365 7.4986 10.372 15.716s1.0622 6.0703 1.0622 7.4986-19.994-32.869-19.994-32.869l-1.4371 6.78 6.092 9.3107-5.7171-2.4995-6.7793-12.154 0.34365 16.434 11.059 9.9981-4.28 3.9055 0.71855 6.4363-16.058-19.996 9.6222 17.872-4.6237 2.1246 8.56 3.2181 3.2178 10.717-1.7807 3.2181 2.8429 4.999h-9.2786c-1.7852 0-4.2978-2.504-7.1542-3.2181s-4.28 5.7177-4.28 5.7177l-7.1229 2.1246-4.6549-2.4995-7.4978 2.1558-0.34365-7.1549-3.2178-1.0623-4.9986 1.7809-6.0608-3.2181 1.7807-4.6241-5.3734-5.7177-1.0622-6.0613-4.28-3.593-6.7793 2.1558v5.3427l-1.4371 4.999-2.4993-5.3427-7.8415 3.5618v4.6554l-4.9986 1.7809-0.3749-3.2181-3.2178-4.6554-6.4044-0.34367v6.0613l-5.3734 2.1558-2.1244-2.4995v5.3427l-1.4371 6.0926 2.4993 6.78-5.7171-0.37493-1.7807-2.4995-1.4371-3.5618h-2.4993v-3.2181l1.0622-3.9367 0.37489-3.5618-4.9986-1.7809-2.1556-3.5618-4.9986 3.5618v-2.1558l-6.0607-2.1246 4.6549-3.9368-2.4993-2.4995-1.812-5.7177-4.9986-1.7809-3.9051 1.4372-7.1542-0.71861-3.9364 1.4372-1.7807 2.4995h-5.7171l-2.1244 3.5618-6.4356 0.34368-2.1244 3.9368h-2.8742l1.0622 6.4363-4.6237-1.0623v6.0613l-3.9364 7.4986 1.2496 5.8739-3.7489 0.18746-6.7793-13.216s0.18743 13.234 0.18745 14.841-15.527 3.0307-15.527 3.0307l-584.96 14.216-0.71854-4.4991-0.24993-15.903-12.371-16.403 8.5913 16.153 0.49985 12.873-7.5916-4.8116-12.871-0.74985 11.372 3.0307 10.091 8.0922 0.31241 2.2808-18.994 0.46866-3.0304-7.2174-14.152 0.09373-1.2496 8.7796-8.5913-6.2176-3.2803 6.28-48.33 1.2498v8.2484l99.034-1.5934 0.81226 5.8114 4.7799 10.342-1.2496 4.5304 5.061 12.654-4.3112 19.934 1.5308 8.3422-7.3416-2.4058-12.746 6.3113-6.3107-0.87483 3.9364 3.0307-1.7807 19.934 4.5299-17.684 7.0917 9.8419-5.311-11.841 12.121-5.8114 7.8102 4.5304-4.5299 45.71-11.122-4.2804 11.622 8.5609 0.49986 6.5612-9.591-5.5302-29.523 2.2496-7.3416 8.0922 10.872-7.8422 24.493-0.24995 11.091 7.0924 2.2806 9.092 0.28117 0.21871-4.0613-2.4995-4.3112 4.5304-7.8102-1.2498-3.7802 13.872-4.0613-13.122-15.121-2.0309-3.0304 11.123-12.309-6.4988v-0.03125l-0.62482-3.4056-3.3115-3.4681-3.1241 1.4372s-3.2937 4.9053-3.5615 5.5302 3.5615 2.687 3.5615 2.687l1.0934 3.9992-5.4672-1.6872-0.62482-3.7493h-4.28c-0.53557 0 0.28117 3.9368 0.28117 3.9368l-5.9045-2.5933 1.0934-2.4058-4.4675-0.56238-1.2496 0.37492-1.3434-3.2181-4.8111 2.312-0.99971 4.6554-2.593-0.81234 1.3434-4.7178-2.4056-0.18748-0.28117-4.8116-2.8429 0.24995s0.18745 2.4281 0.18745 2.8744-2.3431 0.24994-2.3431 0.24996l-0.43738 2.4995 4.28 2.1558v5.6239l4.0301 1.0623-2.2494 2.687-2.5618-0.28119-1.1872-3.3744-2.2181 0.53115-0.5311-2.1558-1.8745 0.53116-0.62481-3.3744 2.4993-0.37493-1.0622-2.7495h-3.0616l1.0934-2.3121-2.7804-1.2498-0.24992 2.0309-1.6245 0.81235-0.24993 3.5618 1.3121-0.24994 1.2496 1.0623-0.87475 1.9684 0.96847 1.7496-3.374-2.9057v186.93h1023.7v-477.22l-1.3434 0.9998-5.061-6.5612v-13.122zm-453.9 157.22-0.71854 8.7483-7.1229 4.999 1.4058 24.995 75.384-2.2808 45.049 1.3747 36.24 6.9987 18.62 19.496 7.1229 20.402-21.494 3.968-8.7787 0.65612-0.6873-9.092-4.0926-3.6556-3.0304 7.1549-2.8117 7.7173-3.7802-4.5929-2.6242-25.433-0.5311 25.245-2.9991 4.8428-4.5612-4.5616 3.7177-4.5304-5.9983-7.561-3.499 3.9367-4.3425 5.6239-8.8099-0.84359 5.2172-3.7493 4.1863-9.4045-6.3419-2.6557-4.28 7.811-6.1857-20.215-6.0607-3.3744 0.62482 16.591-2.9366 6.7487-1.4058 9.2482-9.5285-7.9985 2.2806 7.5923-4.5612-0.24996 2.0307 7.7173-9.3098-1.9059-3.3428-6.405-1.7182-7.686-8.1851-1.1248-8.3413-4.093 2.3431 4.7803 8.1226 4.0305 1.031 12.779-6.1232 2.9369-8.3413-10.717 4.8111-3.2806-6.3732-4.7178-0.28117-7.2174-3.4677 6.78 1.2496 5.3115-3.9051-3.1244-1.6558-9.1232-4.2488 3.0307 0.59358 5.374 4.7174 2.9994-3.7802 4.093 4.7486 6.7175 3.7802 7.0299-5.2485 1.7497-0.99971-5.2802-5.2797-6.5925-5.0923 4.9366 0.71854-8.0297-2.9991-15.809-0.71854 11.654-5.8108-10.311-0.28117 10.654 3.4053 2.7807-3.6552 6.3738-7.8102-6.1551 2.0619 10.217 5.311 1.7809-1.2496 7.3736-7.0917-8.4046-3.5615 5.7489-5.061 2.7807-2.7804-2.0309-6.0607 3.2806-8.5913 5.6239-9.7159-5.499-0.37489 5.7177-4.9361-3.968-3.9988 7.4048-11.715-5.0615-14.933 9.2482 1.4683-11.654-10.528 2.4683-11.622-6.9049-22.493 12.966-8.0914-4.0305-1.7495 4.5616-3.8114-5.0615-7.0604 2.7807h-3.0304l0.24993-3.5306-18.182 1.9996 3.2803-7.0612-14.621-9.5919-0.24993 6.8112 3.5302 4.8116-6.3107 4.5304 4.7799 1.031-0.24993 9.0608-4.7799 1.7809 1.2496 6.0613-8.3413-6.8112-7.3104 4.5304-1.2496-6.3113 2.4993-6.0614h-5.7796l0.99971-4.5304 6.0608 1.2498-4.3112-6.5612 1.031-7.3111-8.8412 3.0307 2.0307 7.0611-5.061 5.5614-2.5305-3.7805 3.7802-3.2806-12.621-3.3119-6.3107 12.904 5.5609 8.8108-15.652 11.623-7.3104-5.3115-2.2806 4.8116-11.622 2.0309s-3.0202-7.8372-4.0301-8.3422-2.0307 8.0922-2.0307 8.0922l-9.8409 0.99981 1.5308 5.8114-3.5615-0.24996v-6.5612l-6.5606-4.5616-5.5296-10.842-1.031 9.5919-3.2803 6.8112 1.2809 5.0615-7.5916-1.281-5.5609 3.2806v-4.2804l-5.7796-1.531 0.74978-9.5919-9.0911 0.24995-1.5308 5.0615-4.28 3.5306s-4.5465 3.8845-5.6234 5.2802c-0.2291-1.3947-2.2181-5.0303-2.2181-5.0303l-3.5302-0.99981-0.74978-6.0613-9.591-5.5614-4.28 4.5616 0.99971 9.5919-0.74978 7.811-3.0304-7.811-14.652-6.5612-2.7804 7.3111-5.8108 2.2808-4.28-2.7807-1.7807 6.3113-9.591 1.7497-0.74978-4.5304-11.372 0.4999-3.5302-5.0615-3.2803 1.031 1.2809 5.5614-4.8111-3.5618-4.8111-13.622-0.24993 13.372-4.7799-4.5304-3.0304 7.0612-5.5609-4.7803-9.591-2.0309-1.5308 3.5306s2.8066 7.3297 3.3115 8.5921-11.872-10.873-11.872-10.873l-4.0613 5.3115 0.5311 7.3111-9.9659-6.1551-2.1556-18.84-1.2809-5.0303 2.0307-19.965 12.121 2.7807 2.5305 5.8114-2.0307 3.2806-0.99971 6.5612 4.7799-6.8112 7.0604 6.0613-9.8409-17.184-13.371-4.2804 1.4996-22.214 3.5615-4.8116v-4.7803l4.7799-7.5923-7.5603 6.3113 0.24993 5.8114-2.2806 0.49991-2.2806-10.842 3.5302-20.184 9.0911-12.373 0.5311-8.5921 7.3104-6.5612 13.121-1.281-14.121-0.99981-8.8412 6.8112-4.0613-4.7803 3.3115 12.873-6.8418 10.342-3.5302-8.0922 1.031-3.5306 6.3107-3.2806-7.0917 0.4999-4.0301-8.5608-0.93723-5.8426 461.21-7.3736zm-316.69 144.25c0.04808 0.31734 0.0019 0.4999-0.18745 0.4999-0.17586 0-0.03405-0.20902 0.18745-0.4999z" fill-rule="evenodd"/>
  <path d="m-75.5 420.53c0 1e-5 -1.2317 4.0938 0.375 4.0938s3.5625-1.25 3.5625-1.25v-2.6562l-3.9375-0.1875zm6.9688 5.1562c-0.06734-0.01438-0.13171 0.00893-0.1875 0.03125-0.8926 0.35708-2.8438 2.8438-2.8438 2.8438l-2.1562-1.4375-1.7812 3.2188c0-1e-5 -2.5 0.88372-2.5-0.1875s0.71408-2.6562 0-2.6562-3.2188 1.4062-3.2188 1.4062-2.3164 6.6294-0.53125 6.0938 3.4062-1.0938 3.4062-1.0938l-0.625 4.25 2.9375 0.40625 0.71875-3.2188-2.1562-0.71875 1.4375-2.6562h4.8125v-2.1562h2.5c0-1e-5 -1.7672 3.9419 0.375 3.4062s3.0312-3.2188 3.0312-3.2188-2.2087-4.0967-3.2188-4.3125zm-10.438 12.469-0.8125-0.125 0.71875 0.875 0.09375-0.75zm14.906-2.4375-7.8438 0.34375-1.25 3.4062-6.25 2.8438 11.062 6.25 2.6562-7.1562-4.8125 1.8125c0-1e-5 -0.87033-4.125-0.15625-4.125s9.2812 1.625 9.2812 1.625l-2.6875-5zm-49.469 15.875-7.6562 6.25 2.3125 0.34375 0.1875 5.1875c1.6067 0.35708 5.3438 0.1875 5.3438 0.1875v-4.2812c0 1e-5 -2.1293-0.54482-1.5938-1.4375s2.125-2.6875 2.125-2.6875l-0.71875-3.5625zm7 4.4062c-0.40795 0.03138-0.75 0.19204-0.75 0.59375 0 1.0712-0.53125 6.4329-0.53125 5.7188 0.71408-0.17855 2.875-2.5 2.875-2.5v-3.5625s-0.91384-0.30231-1.5938-0.25zm34 0.6875c-1.6513 0-3.3125 0.08042-3.3125 0.4375v6.7812h-0.90625l2.5 1.4375-0.15625 3.2188 6.7812-3.75-2.875-1.9688 1.7812-2.3125-0.53125-3.75c0 1e-5 -1.6299-0.09375-3.2812-0.09375zm-41.344 8.6562-0.53125 4.4688 0.71875-0.1875c1.4282 1e-5 3.2188-0.71875 3.2188-0.71875l-0.375-3.5625h-3.0312zm50.344 1.7812-2.3125 0.90625v2.125l-3.5938-0.53125 0.5 3.6875c2.2106-0.24897 5.4062-1 5.4062-1v-5.1875zm-5.4062 6.1875c-0.44569 0.0502-0.85801 0.0625-1.1875 0.0625l1.25 0.34375-0.0625-0.40625zm14.875-6.1875-3.4062 2.3125-3.0312 7.1562c0.8926 0.53562 4.8125-3.9375 4.8125-3.9375l3.5938 0.375-1.9688-5.9062zm-46.406 2.1562-2.875 0.71875-0.1875 4.625c0.8926 0.17853 4.2812-0.34375 4.2812-0.34375l-1.2188-5zm-9.6562 5.1562-3.5625 4.125 4.625 0.15625 0.375-3.375-1.4375-0.90625zm5.1875 3.6875c-0.23796 0.64728-4.518 3.4688-5.1875 3.4688-0.71407 0 0.90625 2.3125 0.90625 2.3125l4.0938-1.5938 0.1875-4.1875zm58.531 0.0625-3.75 4.2812-0.34375-3.5625-3.2188 1.25-0.53125 1.9688-2.5-0.71875-0.53125-1.7812-4.6562 2.3125-7.3125 1.4375 0.53125 4.4688 3.0312-0.90625 1.4375-2.6562h2.1562c0-1e-5 -1.4461 6.5938-0.375 6.5938s3.75-0.90625 3.75-0.90625-1.0488-4.6383-0.15625-4.2812 4.625 0.90625 4.625 0.90625l9.4688-6.25-1.625-2.1562zm-49.438 6.625-1.4375 2.6562s-6.0539-0.34374-7.125-0.34375-1.25 6.0625-1.25 6.0625l1.9688 4.6562 2.8438-5 4.0938-2.875 1.625 4.125-3.0312 0.53125v2.8438l3.75 2.5 2.6562-2.3125 3.75 3.9375-6.5938 2.3125 0.1875 2.8438 9.2812-4.2812 4.4688 1.4375c0.53556 0.17854 1.759-2.5046 1.9375-3.2188s-1.2324-0.53124-2.125-0.53125-2.3125-3.2188-2.3125-3.2188 4.6297-1.6117 5.3438-1.9688 1.0625-3.75 1.0625-3.75l-7.3125 0.1875s-0.35274 5.0136-0.53125 5.9062-2.3125-1.4375-2.3125-1.4375l-2.1562-3.9375 0.375-4.4688-7.1562-2.6562zm27.844 9.4688-5 3.7188 2.1562 0.90625 4.0938-1.9688-1.25-2.6562zm-0.53125 9.2812s-3.7593 1.4152-5.1875 1.5938-2.125 2.3125-2.125 2.3125l1.5938 1.625-0.34375 4.2812 3.375 0.53125 1.0938-5.5312 2.6562 0.71875-0.15625-2.6875-0.90625-2.8438zm9.0938 59.094-2.8438 0.53125 0.71875 3.9062h-4.6562l-0.15625-3.9062-3.75 0.1875 0.53125 2.4688-3.4062-0.53125 3.4062 3.4062-1.4375 3.2188-4.4688-2.5-1.25 3.5625 3.75 2.1562-4.2812 2.6562 3.9375 7.5 1.9688-2.125 2.8438 0.15625 0.53125 1.625s4.6609 1.0625 5.375 1.0625 0 2.1563 0 2.1562l-5-1.4375-2.3438 1.0625 1.7812 3.9375 3.5938-1.0625h4.625l-0.53125 3.75-0.84375 4.1875 3.0312 1.25-0.25-4.2812 4.2812-1.7812 4.8125 1.0312 1.4688-4.3438-6.25 0.1875-0.34375-4.125s-0.90661 0.375-2.1562 0.375-0.34375-2.1562-0.34375-2.1562h1.5938l0.375-1.9688 1.7812-0.15625 2.6562 0.875 0.71875-4.625s-2.8664-0.38398-3.9375-0.5625 2.6875-2.8437 2.6875-2.8438l-1.9688-3.2188-5.3438-0.53125 4.8125-2.3125-1.25-3.9375-4.2812 1.7812-0.1875-4.625zm37.5 1.4062-3.375 0.90625-1.0938 2.6875h-4.4688l-1.25-2.875h-2.6562v4.4688l-4.8125 1.4375-1.9688 2.125 2.5 3.75-0.71875 2.875v2.6562l2.6562-1.0625 4.6562-3.9375 2.6875 1.4375-0.71875 1.625 3.5625-3.2188 2.1562 0.15625v-3.75h5.3438l-1.7812 5.5625-3.2188 0.34375c0 3e-5 -2.6875 0.01357-2.6875 0.90625s-0.15625 2.5-0.15625 2.5l3.9062 0.15625 4.6562-1.7812 0.875-3.9375c0-3e-5 3.0449-1.25 3.9375-1.25h4.125l-1.0938 3.4062c0 3e-5 -3.3973-0.16496-3.2188 0.90625s0.00467 4.2812 0.71875 4.2812 3.2188-1.0938 3.2188-1.0938v-2.125l2.8438-2.5v-4.6562l3.0625-0.53125-0.1875 3.75 3.5625-1.0625-0.71875-1.9688 3.9375-2.1562-0.90625-3.9062-0.6875-2.875h-3.0625l-1.4062 2.5-1.7812-0.34375c0 2e-5 0.17385-2.5-0.71875-2.5s-4.6562-0.72747-4.6562 0.34375 0.53125 4.2812 0.53125 4.2812l2.3438 3.75-4.6562-0.875-0.71875-1.9688-4.0938 1.0625-0.53125-1.7812 2.5-3.75-1.25-1.9688h-5.1875zm7.9375 23.438-5.3125 1.6562-1.5 5.4375 2.5 1.625-0.75 3.5312-4.5312 0.5 0.375 3.0312-2.0312 0.25 0.125 4.0625 3.0312 2.7812c0 1e-5 -3.1538 2.63-3.4062 2.125s-2.9062-3.9013-2.9062-4.4062-0.875-2.4062-0.875-2.4062l1.9062-2.6562 1.125-3.0312-3.0312-0.75-2.0312-1.5 1.2812-3.8125 2.5312-2.375 1.125 0.625c0 1e-5 -3.1534 2.4075-0.25 2.2812s3.9062-0.78125 3.9062-0.78125l-0.125-5.8125-3.0312 0.28125-0.75 1.375-3.4062-1.7812-1.5312 3.2812-4.2812 1.0312 0.25 6.4375-1.9062 2 0.53125 2.5312-0.90625 1.4062 0.65625 2.375s-1.9087-0.22747-1.6562 0.65625 0.25 2.7812 0.25 2.7812l2.2812-0.15625 0.125 2.9062 3.5312-0.5 1.25 3.0312-2.125 3.0312 1.625-1.125c0 2e-5 1.4013 3.0325 1.9062 2.9062s3.0312 0.50747 3.0312-0.25v-3.0312l4.5312-1.0312-0.125-3.1562 1.7812 0.375 0.375 2.7812 2.6562-0.625 2.75 2.0312 2.2812-2.2812c0 2e-5 -2.5312-0.87002-2.5312-1.375v-4.1875h2.7812c0-1e-5 4.3051-6.8125 5.0625-6.8125s3.9062-0.75 3.9062-0.75v-3.0312h-3.5312l-2.5312 2.6562-4.5312 6.6875-3.6562-1.4062 0.25-4.1562 4.0312-0.625 2.9062-3.1562-3.0312-1.5-1.5312-1.5312 0.125-1.5 8.7188-0.28125-2.4062-4.2812-2.625 1.9062-1.4062-3.1562-1.25-1.1562zm-41.781 16.031c0-1e-5 -2.0399 2.6538-1.1562 2.9062s3.0312 3.6562 3.0312 3.6562l-0.875 1.4062c0-1e-5 -1.7512 0.37998-1.625-0.125s0.75-2.9062 0.75-2.9062l-2.5312-0.375-1.9062 2.9062-0.75 1.875 2.7812 0.125 0.25 2.9062-2.2812-0.125-3.0312-0.75 0.65625 2.1562-1.0312 2-3.1562 2.7812 0.53125-0.125 2.25 0.75 1.7812-2.75 2.7812-1.2812 2.5 1 0.25-2 2.7812 0.25 0.78125 2.0312 2.375-0.90625-0.5-4.2812 2.2812-1.9062 0.375-4.5312-2.7812-0.875-1-3.8125h-3.5312zm51.75 8.4688-2.2812 2.0312 3.0312 3.7812-0.5 5.3125-2.0312-2.7812-1.25-2.5312-3.7812 1.75 3.0312 9.625 4.0312-1.0312v-3.5312l2.5312-0.5v-5.5625l-2.7812-6.5625zm-14 5.3125s-4.9375-0.00498-4.9375 0.5-0.625 4.6562-0.625 4.6562h2l0.40625-3.0312 3.1562 0.65625 1.875 3.5312 2.2812-0.90625-0.375-2.375-2.4062-1.7812-1.375-1.25zm-58 6.4062-7.5 0.34375v2.3125l-1.7812 0.71875 0.90625-3.2188h-3.75l-0.375 5.375-1.7812 1.9688 0.71875 3.1875 4.0938-2.6562 2.6875 2.6562s-1.7902 1.2546-1.9688 1.9688 1.0625 2.1562 1.0625 2.1562l2.5 0.875-2.3125 1.625v3.2188l5.7188 1.7812-0.53125 1.9688-5-1.9688s-0.37069 1.2503-0.90625 2.5 2.5 0.34373 2.5 0.34375l1.0938 3.0312-3.0625 2.1562 1.0938 2.3125 4.2812-1.9688 1.4375 3.75 3.375 0.1875v2.8438l-3.5625 0.1875-1.7812-4.0938-3.4062 1.0625-0.71875-1.9688h-2.3125l-0.53125 2.3125-1.7812 1.25-1.7812-3.1875h3.0312l-0.71875-3.2188-3.5625 1.25 0.875-2.6875-5.875-0.1875 0.71875-4.8125-3.9375 0.34375 1.25 4.6562h-2.8438v3.9375l2.6562 0.15625 1.25 2.875 2.5 0.34375 0.1875 1.7812 3.5625-0.875 0.53125 2.3125 3.4062 1.7812 1.7812-1.4375 3.9375 0.1875-0.375 4.2812 2.3125 1.0938 1.625-4.4688-0.1875 9.2812 3.0312 1.25 1.0938-4.2812 4.0938 0.71875 1.0625 4.4375 2.875-3.0312 4.2812 2.875 0.15625-1.9688-2.5-3.2188-1.7812-2.3125 6.25-0.90625 0.90625-3.9375s-5.3484-1.759-6.0625-1.9375-3.5938-5.5312-3.5938-5.5312l3.0312 0.53125 3.9375 3.9062 2.1562-1.25-6.0938-9.0938-3.375-0.71875 0.53125-3.5625 1.7812-0.1875 0.90625 2.1562 2.5 2.125 3.75-4.625-2.875-2.1562-6.9688-3.375-3.9062 1.4062-1.4375-3.2188 2.3125-0.15625 0.5625-2.875-2.875-0.15625-0.34375-4.4688-2.1562-0.71875-1.0625 1.9688-1.9688 1.4375v-2.6875l-3.0312 0.71875v-1.9688l1.4375-1.4375 1.5938 0.90625h2.6875l0.34375-4.2812zm58.375 1.6562-5.9375 0.25-2.4062 2.5312-2.0312-2-3.2812 0.375v3.4062l1.4062 2.125-4.3125 3.9375-3.5312-3.5312-1.875 0.375-0.875 3.6562c0 1e-5 3.4001 2.9038 4.0312 3.1562s4.4062 0.375 4.4062 0.375l2.7812-2.1562c0-2e-5 -1.5049-1.3713-1-1.75s5.0312-2.2812 5.0312-2.2812l2.0312-0.25c0 1e-5 -1.0123-1.9075 0.25-1.7812s4.9375-0.125 4.9375-0.125l-4.3125-3.2812 1.1562-1.625c0-1e-5 4.0312 2.135 4.0312 1.125s-0.5-2.5312-0.5-2.5312zm9.4688 8.0938-1.5312 4.2812-5.1562-1.875-0.40625 3.9062 4.5625 0.125-0.75 3.5312 3.0312 0.625 1.125-3.1562 3.1562 1.4062 1.25-1.9062 1.1562-3.1562s-3.6789 0.00125-4.5625-0.125 0.5-2.4063 0.5-2.4062l-2.375-1.25zm22.469 0.125 0.125 3.9062-3.2812 1.4062v4.0312c0-3e-5 -2.5312 2.505-2.5312 2s0.625-6.4375 0.625-6.4375l-3.6562 0.78125 0.125 4.5312 1 2.2812-2 1 2.125 4.3125 1.2812 2.375-2.0312 2.9062-0.875-1.875-1.4062-2.1562-3.2812 1.5 2.9062 2.2812v2.2812l-1.375 1.375-2.7812-1.125-1.125 2.6562h-3.0312l-0.375 1.375-2.2812 0.75-2.9062-0.625 1.75-3.6562 3.8125-1.25-0.53125-3.4062-4.2812 0.625 1-3.6562-0.5-3.2812-3.7812-0.53125-1-2.75c0-2e-5 -3.1562-0.13371-3.1562 0.75v3.1562l-5.1875 1.375 1.2812 3.6562 5.4062 1.0312 1.9062-2.6562 2.2812 3.5312-1.7812 2.7812 1.5 1.25-0.875 2.4062-0.625 3.5312 0.125 4.4375 2.0312-0.78125 0.625-2.6562 3.0312-0.5 2.5312 0.5-0.90625 3.5625h3.1562v-2.5312l1.4062-2.6562 3.4062 1c0 2e-5 1.1201-1.375 1.625-1.375s3.0312-2.0312 3.0312-2.0312l2.4062 0.5 1.375-1.375c0-3e-5 -3.266-1.4-1.625-2.0312s5.3125-2.375 5.3125-2.375l-1.5312-3.1562-0.875-3.1562-3.1562-3.3125 2.9062-0.75 2.125-2s-1.2574-1.7788-0.5-2.0312 2.7825 0.38121 2.6562-0.25-0.25-3.7812-0.25-3.7812l1.7812-1.1562 1.875-2.6562-5.0312-1.875zm-51.656 7.9375-2.125 1.5312 1.75 2.9062-2.25 2.6562 0.625 3.0312-1 2.625-0.53125 6.1875-0.625 2.5312 5.5625 2.0312 1.25 2.5312-1 1.25-2.4062-1.7812-3.1562 0.65625 0.125 3.5312 5.1875 0.625 1.9062-0.125 1.625-5.0625h4.0312l3.5312-2.7812 4.1875-0.125v-1.875l-3.5312-0.125 0.125-1.5312 2.625-0.125-0.25-3.9062-2.125-0.125-0.625 2.9062-1.5312-0.5-0.25-2.4062-3.1562-0.125v2.1562l-6.8125 3.5312-1.4062-1.0312 3.8125-3.6562 2.9062-2.5312 3.4062-1.375 0.875-3.6562-4.0312-3.5312-4.0625 2.7812-1.25-2.2812 2.7812-1 1.125-3.0312-3.1562 1.375-2.1562-2.1562zm19.844 18.812c-0.06731 0.02071-0.10922 0.06188-0.125 0.125-0.12623 0.50496-0.65625 4.6875-0.65625 4.6875l0.28125-0.875 2.875-0.53125-0.375-2.75c0 1e-5 -1.5288-0.80124-2-0.65625zm-83.312 1.75-0.34375 3.2188-3.2188 0.34375-1.25 2.1562 2.3125 1.0625 0.1875 3.4062 2.3125 1.0625 0.53125-3.0312-2.3125-2.5 3.0312-1.625 1.0625 1.625 1.0938 3.375 1.9375 1.25-1.25 3.75 3.5938 2.3438 2.8438 1.7812-0.34375 3.1875 1.0625 0.1875 0.90625-1.5938 4.0938-1.0625-1.7812-2.5 3.2188-2.1562 0.15625-2.8438-5.5312 3.0312-0.71875-1.7812-3.1875 0.6875v-4.2812l1.5938-0.34375 0.1875-5.375-3.4062-1.0625-0.34375 1.9688-2.5 0.71875 0.34375-3.2188-4.2812-1.7812zm62.719 12.781c0-1e-5 0.52632 5.5637 1.0312 5.4375s3.0312-0.40004 3.0312-1.0312-0.65625-3.7812-0.65625-3.7812l-3.4062-0.625zm-71.281 2.0312-3.0312 0.1875 1.0625 4.625s-3.2234-1.5938-3.9375-1.5938-0.875 3.375-0.875 3.375l4.4688 1.4375-0.5625 1.7812-4.8125-1.25-1.25 3.0312 4.8125 2.875 4.3125-0.1875-1.25-5.1875 3.75-0.15625 1.4062 2.5 3.2188-2.875 1.9688 1.25-1.7812 3.9375 2.125 1.9688 4.2812-5 1.625-3.75 0.71875-2.6875-2.875-0.15625v2.4688s-1.5988 1.25-3.5625 1.25 0-2.8438 0-2.8438l-3.5625-0.1875-2.1562-3.9062-2.8438 3.9062-1.25-4.8125zm66.219 2.5312c0.45765 0.30698 0.78125 4.4329 0.78125 4.9062 0 0.50498 2.1562-0.12499 2.1562-0.125l0.625-3.7812-3.5625-1zm-10.719 8.1875-3.7188 1.0625v3.0312l-1.0938 0.53125-0.53125-3.0312s-3.0359 0.18748-3.75 0.1875 0.375 2.8438 0.375 2.8438l-2.6875 0.5625 0.53125-2.1562h-3.75l0.1875 1.9688-1.4375 0.34375-0.875 2.875 3.7188 2.8438-0.6875 3.75 1.7812 2.5 1.25-7.5-2.5-0.53125-0.1875-2.1562 3.2188 1.0938 1.4375 3.2188 4.2812-0.71875-0.1875-5.1875 3.2188 1.5938 3.0312-0.53125-1.625-6.5938zm-31.719 1.9688c-0.66749 0.38511-1.3014 4.6743-1.4688 5.3438-0.17853 0.71416 4.625-3.2188 4.625-3.2188 0.35704 0.35707-2.3172-1.9465-3.0312-2.125-0.04463-0.01116-0.0805-0.02567-0.125 0zm-4.875 4.2812-3.1875 1.5938-3.75 2.875 0.53125 3.5625 4.2812-0.53125 3.5625-5-1.4375-2.5z" fill-rule="evenodd"/>
  <path transform="matrix(12.096 0 0 12.098 -544.64 -5491.1)" d="m64.286 492.36a14.286 14.286 0 1 1 -28.571 0 14.286 14.286 0 1 1 28.571 0z" fill="url(#d)" filter="url(#m)"/>
  <path transform="matrix(.99971 0 0 .99981 14.482 -11.214)" d="m64.286 492.36a14.286 14.286 0 1 1 -28.571 0 14.286 14.286 0 1 1 28.571 0z" fill="#fff"/>
  <path transform="matrix(2.5549 0 0 4.9901 -66.418 -1834.9)" d="m64.286 492.36a14.286 14.286 0 1 1 -28.571 0 14.286 14.286 0 1 1 28.571 0z" fill="url(#f)"/>
  <path d="m412 549.71 2.0683 0.15686-1.8158 20.707s-2.2991 0.81874-2.1206-0.25248 1.6896-20.075 1.8681-20.611z" fill="#fc0" fill-rule="evenodd"/>
  <path d="m403.3 570.32 3.5704 0.18751 0.8926 23.68-3.17-0.00896-1.293-23.859z" fill="#fc0" fill-rule="evenodd"/>
  <path d="m403.66 580.86-1.4282 25.352 7.1408 4.999 1.0711 16.425 16.959 0.5356 1.4282-15.89 6.6052-2.8566 7.8549 2.1424 3.9274-4.642 4.2845 1.4283-1.0711 4.999 4.9986-4.2849 1.7852 4.642-1.7852 5.7132 3.5704 2.8566 1.4282-3.2137 2.8563-0.35706v3.5708l3.9274 2.1424 1.7852-6.0702 5.3556 1.7854 2.8563-2.8566s-7.1408-7.4986-1.7852-7.8556 8.926 0.71416 10.711 0.71416 12.139 0.71415 12.139 0.71415l58.197 4.642 6.1025 5.2184 2.4202-7.8225 4.295 13.322 12.532 0.70866 9.6401-33.208-1.0711-26.781-11.068-5.3561-8.2119 1.4283-2.8563-4.642-1.7852 5.3561h-3.5704l-1.7852-3.5708-2.1422 5.3561-2.8563 3.5708 6.7838 1.7854-3.9274 2.8566-4.2845-0.71416v6.7844l-15.353 7.1415-14.996 1.7854-17.852-6.4273-102.83-1.4283z" fill="url(#i)" fill-rule="evenodd"/>
  <path d="m412.01 549.72c-0.17852 0.5356-1.6959 19.519-1.8745 20.59s2.1244 0.24997 2.1244 0.24995l1.812-20.684-2.0619-0.15621zm-8.7162 20.59 1.2809 23.87h3.1866l-0.90599-23.683-3.5615-0.18747z" fill="#fc0" fill-rule="evenodd"/>
  <path d="m403.66 580.86-1.4282 25.352 7.1408 4.999 1.0711 16.425 16.959 0.5356 1.4282-15.89 6.6052-2.8566 7.8549 2.1424 3.9274-4.642 4.2845 1.4283-1.0711 4.999 4.9986-4.2849 1.7852 4.642-1.7852 5.7132 3.5704 2.8566 1.4282-3.2137 2.8563-0.35706v3.5708l3.9274 2.1424 1.7852-6.0702 5.3556 1.7854 2.8563-2.8566s-7.1408-7.4986-1.7852-7.8556 8.926 0.71416 10.711 0.71416 12.139 0.71415 12.139 0.71415l58.197 4.642 6.1025 5.2184 2.4202-7.8225 4.295 13.322 12.532 0.70866 9.6401-33.208-1.0711-26.781-11.068-5.3561-8.2119 1.4283-2.8563-4.642-1.7852 5.3561h-3.5704l-1.7852-3.5708-2.1422 5.3561-2.8563 3.5708 6.7838 1.7854-3.9274 2.8566-4.2845-0.71416v6.7844l-15.353 7.1415-14.996 1.7854-17.852-6.4273-102.83-1.4283z" fill="url(#j)" fill-rule="evenodd"/>
  <path d="m412 626.51 2.0683-0.15687-1.8158-20.707s-2.2991-0.81873-2.1206 0.25248 1.6896 20.075 1.8681 20.611z" fill="url(#c)" fill-rule="evenodd"/>
  <path d="m403.3 605.89 3.5704-0.18751 0.8926-23.68-3.17 0.00895-1.293 23.859z" fill="url(#c)" fill-rule="evenodd"/>
  <path d="m412.01 626.5c-0.17852-0.53561-1.6959-19.519-1.8745-20.59s2.1244-0.24996 2.1244-0.24994l1.812 20.684-2.0619 0.15621zm-8.7162-20.59 1.2809-23.87h3.1866l-0.90599 23.683-3.5615 0.18746z" fill="url(#c)" fill-rule="evenodd"/>
  <path d="m-152.61 563.23 0.04462 10.311 46.772-0.04463 4.2398 7.5432 7.8549-7.4986 1.4282 10.355 13.21-1.0712 2.8563-12.141 494.14-7.4986v-15.711l-570.55 15.756z" fill="url(#k)" fill-rule="evenodd"/>
 </g>
</svg>
