<svg id="Layer_1" data-name="Layer 1" xmlns="http://www.w3.org/2000/svg" viewBox="0 0 1171.33 1056.72"><defs><style>.cls-1,.cls-3,.cls-4{fill:#fff;}.cls-2{fill:none;stroke:#fff;stroke-miterlimit:10;stroke-width:2px;}.cls-3,.cls-4{font-size:130px;}.cls-3{font-family:MyriadPro-Regular, Myriad Pro;}.cls-4{font-family:NunitoSans-ExtraLight, Nunito Sans;font-weight:200;}</style></defs><path class="cls-1" d="M312,90V272H100V90H312m2-2H98V274H314V88Z" transform="translate(-76.67 -88)"/><path class="cls-1" d="M743,90V272H531V90H743m2-2H529V274H745V88Z" transform="translate(-76.67 -88)"/><path class="cls-1" d="M743,365V547H531V365H743m2-2H529V549H745V363Z" transform="translate(-76.67 -88)"/><path class="cls-1" d="M206,350A106,106,0,1,1,100,456,106.12,106.12,0,0,1,206,350m0-2A108,108,0,1,0,314,456,108,108,0,0,0,206,348Z" transform="translate(-76.67 -88)"/><path class="cls-1" d="M637,646A106,106,0,1,1,531,752,106.12,106.12,0,0,1,637,646m0-2A108,108,0,1,0,745,752,108,108,0,0,0,637,644Z" transform="translate(-76.67 -88)"/><path class="cls-2" d="M211,562.72A124.62,124.62,0,0,1,193.17,564c-63.79,0-115.5-48.35-115.5-108s51.71-108,115.5-108a123.63,123.63,0,0,1,17.11,1.18" transform="translate(-76.67 -88)"/><path class="cls-1" d="M212,660.2,310.67,844,110.46,845.7,212,660.2m0-4.2L107.07,847.72,314,846,212,656Z" transform="translate(-76.67 -88)"/><path class="cls-1" d="M638,957.2,736.67,1141l-200.21,1.67L638,957.2m0-4.2L533.07,1144.72,740,1143,638,953Z" transform="translate(-76.67 -88)"/><text class="cls-3" transform="translate(303.28 118.94)">+</text><text class="cls-3" transform="translate(784.28 118.94)">=</text><text class="cls-4" transform="translate(1023.28 118.29)">8</text><text class="cls-4" transform="translate(1037.28 1010.29)">?</text><text class="cls-4" transform="translate(988.28 401.29)">14</text><text class="cls-4" transform="translate(1002.28 697.29)">11</text><text class="cls-3" transform="translate(784.28 401.94)">=</text><text class="cls-3" transform="translate(784.28 697.94)">=</text><text class="cls-3" transform="translate(784.28 994.94)">=</text><text class="cls-3" transform="translate(303.28 401.94)">+</text><text class="cls-3" transform="translate(303.28 697.94)">+</text></svg>