<svg id="Layer_1" data-name="Layer 1" xmlns="http://www.w3.org/2000/svg" viewBox="0 0 732 776"><defs><style>.cls-1,.cls-2{fill:#fff;}.cls-2{font-size:72px;font-family:NunitoSans-ExtraLight, Nunito Sans;font-weight:200;}.cls-3{fill:none;}</style></defs><path class="cls-1" d="M346,224V408H162V224H346m1-1H161V409H347V223Z" transform="translate(-75.5 -114.5)"/><path class="cls-1" d="M532,224V408H348V224H532m1-1H347V409H533V223Z" transform="translate(-75.5 -114.5)"/><path class="cls-1" d="M718,224V408H534V224H718m1-1H533V409H719V223Z" transform="translate(-75.5 -114.5)"/><path class="cls-1" d="M346,410V594H162V410H346m1-1H161V595H347V409Z" transform="translate(-75.5 -114.5)"/><path class="cls-1" d="M532,410V594H348V410H532m1-1H347V595H533V409Z" transform="translate(-75.5 -114.5)"/><path class="cls-1" d="M718,410V594H534V410H718m1-1H533V595H719V409Z" transform="translate(-75.5 -114.5)"/><path class="cls-1" d="M346,596V780H162V596H346m1-1H161V781H347V595Z" transform="translate(-75.5 -114.5)"/><path class="cls-1" d="M532,596V780H348V596H532m1-1H347V781H533V595Z" transform="translate(-75.5 -114.5)"/><path class="cls-1" d="M718,596V780H534V596H718m1-1H533V781H719V595Z" transform="translate(-75.5 -114.5)"/><text class="cls-2" transform="translate(133.1 222.9)">40</text><text class="cls-2" transform="translate(318.1 602.9)">48</text><text class="cls-2" transform="translate(133.1 405.9)">16</text><text class="cls-2" transform="translate(350.1 406.9)">?</text><text class="cls-2" transform="translate(156.1 600.9)">8</text><text class="cls-2" transform="translate(323.1 223.9)">24</text><text class="cls-2" transform="translate(509.1 222.9)">56</text><text class="cls-2" transform="translate(507.1 405.9)">72</text><text class="cls-2" transform="translate(508.1 602.9)">32</text><rect class="cls-3" width="732" height="776"/></svg>