<svg id="Layer_1" data-name="Layer 1" xmlns="http://www.w3.org/2000/svg" viewBox="0 0 425.45 192.34"><defs><style>.cls-1{font-size:18px;font-family:Bauhaus93, "Bauhaus 93";letter-spacing:0.2em;}</style></defs><path d="M602.14,334,537.35,495.13,473,334h51.18l13.61,47.57,15-47.57Z" transform="translate(-473 -334)"/><path d="M596.4,397.57h30.68v69.07q0,21.66-10.26,34.45-13,16.25-35.93,16.24a50.06,50.06,0,0,1-15.75-3v-29q7.71,3.61,13.05,3.61,18.21,0,18.21-26.82Zm14.43-36.51a15,15,0,0,1,10.79,4.39,14.53,14.53,0,0,1,.25,20.88,16.9,16.9,0,0,1-22.07,0,14.53,14.53,0,0,1,.25-20.88A15,15,0,0,1,610.83,361.06Z" transform="translate(-473 -334)"/><path d="M711.54,452.42H665a21.52,21.52,0,0,1,.42-14.52H681q-1.63-9.11-10.25-9.1a11.13,11.13,0,0,0-9.35,4.88q-3.61,4.88-3.61,12.51,0,7.95,3.48,12.88a10.74,10.74,0,0,0,9.15,4.92q4.59,0,8.86-4.59l17.47,21A43,43,0,0,1,669.62,490q-18.21,0-30.6-12.22T626.63,447.5a41.06,41.06,0,0,1,12.51-30.35q12.51-12.39,30.72-12.39,17.8,0,29.91,12.1t12.1,29.82C711.87,447.88,711.75,449.8,711.54,452.42Z" transform="translate(-473 -334)"/><path d="M796.75,452.42H750.23a22.53,22.53,0,0,1-1.06-6.48,22.86,22.86,0,0,1,1.47-8h15.59q-1.65-9.11-10.25-9.1a11.16,11.16,0,0,0-9.36,4.88q-3.6,4.88-3.61,12.51,0,7.95,3.49,12.88a10.73,10.73,0,0,0,9.15,4.92q4.59,0,8.86-4.59l17.47,21A43,43,0,0,1,754.83,490q-18.21,0-30.6-12.22T711.84,447.5a41.06,41.06,0,0,1,12.51-30.35q12.51-12.39,30.72-12.39,17.8,0,29.9,12.1t12.1,29.82C797.07,447.88,797,449.8,796.75,452.42Z" transform="translate(-473 -334)"/><path d="M826.88,376.38v31.34h13.78v32.4H826.88q0,9.76,3.08,13.45t11.28,3.69V489.5c-1.59.05-2.77.08-3.53.08a41.65,41.65,0,0,1-19.65-4.84,39.66,39.66,0,0,1-14.8-13.12Q796.2,461,796.2,443.56V376.38Z" transform="translate(-473 -334)"/><text class="cls-1" transform="translate(180.77 176.77)">A Web Developer</text></svg>