<svg id="Layer_1" data-name="Layer 1" xmlns="http://www.w3.org/2000/svg" viewBox="0 0 1069 968"><defs><style>.cls-1,.cls-2{fill:#fff;}.cls-2{font-size:130px;font-family:NunitoSans-ExtraLight, Nunito Sans;font-weight:200;}.cls-3{fill:none;}</style></defs><path class="cls-1" d="M575,333V515H363V333H575m2-2H361V517H577V331Z" transform="translate(-256 -218)"/><path class="cls-1" d="M790,333V515H578V333H790m2-2H576V517H792V331Z" transform="translate(-256 -218)"/><path class="cls-1" d="M1004,333V515H792V333h212m2-2H790V517h216V331Z" transform="translate(-256 -218)"/><path class="cls-1" d="M1220,334V516H1008V334h212m2-2H1006V518h216V332Z" transform="translate(-256 -218)"/><text class="cls-2" transform="translate(167.47 246)">2</text><text class="cls-2" transform="translate(391.47 246)">1</text><text class="cls-2" transform="translate(604.47 246)">0</text><text class="cls-2" transform="translate(827.47 246)">0</text><path class="cls-1" d="M575,517V699H363V517H575m2-2H361V701H577V515Z" transform="translate(-256 -218)"/><path class="cls-1" d="M790,517V699H578V517H790m2-2H576V701H792V515Z" transform="translate(-256 -218)"/><path class="cls-1" d="M1004,517V699H792V517h212m2-2H790V701h216V515Z" transform="translate(-256 -218)"/><path class="cls-1" d="M1220,518V700H1008V518h212m2-2H1006V702h216V516Z" transform="translate(-256 -218)"/><text class="cls-2" transform="translate(167.47 430)">4</text><text class="cls-2" transform="translate(391.47 430)">1</text><text class="cls-2" transform="translate(604.47 430)">1</text><text class="cls-2" transform="translate(827.47 430)">1</text><path class="cls-1" d="M575,703V885H363V703H575m2-2H361V887H577V701Z" transform="translate(-256 -218)"/><path class="cls-1" d="M790,703V885H578V703H790m2-2H576V887H792V701Z" transform="translate(-256 -218)"/><path class="cls-1" d="M1004,703V885H792V703h212m2-2H790V887h216V701Z" transform="translate(-256 -218)"/><path class="cls-1" d="M1220,704V886H1008V704h212m2-2H1006V888h216V702Z" transform="translate(-256 -218)"/><text class="cls-2" transform="translate(167.47 616)">6</text><text class="cls-2" transform="translate(391.47 616)">1</text><text class="cls-2" transform="translate(604.47 616)">0</text><text class="cls-2" transform="translate(826.47 616)">2</text><path class="cls-1" d="M575,889v182H363V889H575m2-2H361v186H577V887Z" transform="translate(-256 -218)"/><path class="cls-1" d="M790,889v182H578V889H790m2-2H576v186H792V887Z" transform="translate(-256 -218)"/><path class="cls-1" d="M1004,889v182H792V889h212m2-2H790v186h216V887Z" transform="translate(-256 -218)"/><path class="cls-1" d="M1220,890v182H1008V890h212m2-2H1006v186h216V888Z" transform="translate(-256 -218)"/><text class="cls-2" transform="translate(167.47 802)">?</text><text class="cls-2" transform="translate(391.47 802)">?</text><text class="cls-2" transform="translate(604.47 802)">?</text><text class="cls-2" transform="translate(826.47 802)">?</text><rect class="cls-3" width="1069" height="968"/></svg>